<svg xmlns="http://www.w3.org/2000/svg" width="1024" height="1024" id="html">
  <path d="M519.141 522.487L134.777 522.612C130.026 522.62 125.073 522.924 120.352 522.481C106.746 521.205 94.5251 510.461 93.3994 496.493C92.8942 490.224 93.2764 483.627 93.2771 477.324L93.291 192.693C93.2939 180.872 91.9359 168.459 100.273 158.766C106.333 151.721 113.87 148.594 122.984 147.942L513.562 147.974C517.175 147.986 521.811 147.526 525.267 148.575L530.32 150.158C540.725 154.565 547.862 164.97 548.057 176.231L548.026 492.477C547.434 509.99 536.536 520.971 519.141 522.487ZM121.436 168.624C112.477 170.47 114.057 179.648 114.043 186.614L114.057 217.333C114.062 219.558 113.878 221.978 114.192 224.178L520.438 224.216L527.25 224.298L527.286 191.223C527.305 169.659 530.561 168.567 506.595 168.655L121.436 168.624ZM145.268 245.08L124.569 245.098C121.161 245.102 117.433 244.804 114.063 245.254L114.048 483.484C114.074 504.884 118.224 501.811 135.989 501.821L497.344 501.823L512.773 501.867C517.872 501.882 522.832 502.871 526.036 497.839L526.791 496.37C527.767 494.215 527.28 490.271 527.282 487.856L527.11 245.192L145.268 245.08Z" transform="scale(1.6)"></path>
  <path d="M164.77 207.142C159.732 207.255 152.709 207.572 148.532 204.328 140.237 197.885 145.737 187.377 156.502 186.056 161.025 185.659 168.671 185.177 172.391 187.98 179.772 193.542 176.694 205.803 164.77 207.142zM210.392 207.114C205.692 207.14 199.819 207.359 196.134 204.076 191.939 200.338 191.781 193.557 195.576 189.479 198.606 186.224 202.691 186.237 206.798 186.077 209.736 185.962 213.229 185.782 216.113 186.311L216.562 186.402C225.741 188.191 228.827 206.152 210.392 207.114zM486.729 206.531L343.058 206.687C337.096 206.685 330.908 207.027 324.969 206.61 312.535 205.735 313.032 187.718 325.773 186.031L468.08 185.873C474.317 185.87 480.831 185.481 487.042 185.92 498.591 186.735 500.351 204.092 486.729 206.531zM296.682 439.998C288.33 440.224 283.707 433.463 286.592 425.469 288.215 420.972 290.655 416.686 292.456 412.227L326.823 329.289C329.664 322.602 330.409 317.526 338.677 316.356 345.358 316.749 351.432 322.306 349.027 329.531 347.907 332.894 346.191 336.208 344.838 339.496L308.885 425.554C306.139 432.249 304.72 438.5 296.682 439.998zM242.421 437.718C239.457 436.31 236.986 434.061 234.519 431.941L190.994 393.44C175.842 379.916 168.348 378.828 188.808 361.689L238.731 318.976C240.042 317.97 241.379 317.459 242.924 316.951L245.48 316.894C253.855 317.031 258.011 327.41 252.793 333.54 249.354 337.581 244.457 341.131 240.484 344.679L202.862 377.082C206.323 379.38 209.505 382.327 212.595 385.091L243.568 412.287C249.236 417.267 262.296 427.032 252.175 435.373 249.277 437.762 245.996 438.033 242.421 437.718zM401.723 436.033C391.778 441.345 380.22 430.037 388.297 420.536 390.707 417.701 394.005 415.314 396.85 412.903L437.347 376.797C432.537 372.089 427.21 367.835 422.108 363.444L393.462 339.04C387.429 334.013 381.433 327.924 387.969 320.159 389.975 317.776 392.444 317.292 395.37 316.988L395.946 316.964C402.147 316.964 407.121 323.258 411.544 326.923L453.289 363.05C471.595 378.452 465.627 379.815 451.683 392.456L420.303 419.782C414.033 425.087 408.234 431.03 401.723 436.033z" transform="scale(1.6)"></path>
</svg>
